<svg width="44" height="44" viewBox="0 0 44 44" fill="none" xmlns="http://www.w3.org/2000/svg">
<g clip-path="url(#clip0)">
<path d="M41.9261 19.3427C41.6973 17.5101 40.9315 16.0507 40.61 15.5035C40.8426 11.6907 40.0866 8.81974 38.3622 6.96753C37.0179 5.52379 35.4475 5.11531 34.65 5.00001C33.4337 2.42894 31.3661 1.93153 30.1094 2.05242C27.7564 -0.138998 25.58 -0.191063 24.1456 0.166687C23.1997 0.403102 22.4592 0.846213 21.9998 1.18028C21.5406 0.845766 20.7996 0.403102 19.854 0.166687C18.4196 -0.191734 16.2431 -0.139445 13.8902 2.05242C12.6321 1.93108 10.5654 2.42894 9.34957 5.00001C8.55206 5.11509 6.98162 5.52356 5.63732 6.96753C3.91248 8.81974 3.15698 11.6907 3.38959 15.5035C3.06804 16.0503 2.30271 17.5101 2.07344 19.3427C1.81446 21.4192 2.20997 24.3476 5.45677 26.7236C5.08047 28.9447 5.43666 32.7683 8.984 34.6484C8.83675 35.4564 8.7391 36.8579 9.46041 38.0559C10.0275 38.9982 10.9645 39.618 12.2484 39.9014C12.8967 40.9018 15.1312 44.0002 17.9197 44.0002C17.9374 44.0002 17.9555 44.0002 17.9731 43.9998C19.468 43.9783 20.8188 43.0948 21.9996 41.3695C23.1807 43.0943 24.5315 43.9783 26.026 43.9998C28.835 44.0409 31.0984 40.908 31.7509 39.9014C33.0349 39.618 33.972 38.9984 34.5389 38.0559C35.2605 36.8579 35.1624 35.4562 35.0153 34.6484C38.5631 32.7683 38.9193 28.9447 38.543 26.7236C41.79 24.3476 42.1858 21.4194 41.9261 19.3427ZM37.2709 25.7522C37.0028 25.931 36.8758 26.259 36.954 26.5719C37.0059 26.7792 38.1721 31.6653 33.8299 33.526C33.465 33.6824 33.2811 34.092 33.4067 34.4683C33.4121 34.4846 33.9262 36.1174 33.232 37.2697C32.8557 37.8952 32.156 38.2972 31.1538 38.4641C30.9304 38.5012 30.7351 38.6362 30.6207 38.8315C30.0243 39.8493 28.0523 42.4749 26.0789 42.4749C26.068 42.4749 26.0564 42.4749 26.045 42.4749C24.8582 42.4566 23.7271 41.4772 22.6833 39.564C22.5495 39.319 22.2639 39.1667 21.9846 39.1667C21.7053 39.1667 21.4487 39.3188 21.3149 39.564C20.2716 41.4772 19.1405 42.4566 17.9532 42.4749C15.9777 42.5066 13.9775 39.8553 13.3776 38.8315C13.2632 38.6362 13.0674 38.5012 12.8444 38.4641C11.8453 38.2974 11.1473 37.8974 10.7701 37.2758C10.0673 36.1172 10.5873 34.4824 10.592 34.4681C10.7171 34.0918 10.5337 33.6822 10.1688 33.5258C5.84938 31.6747 6.99459 26.7777 7.04509 26.5716C7.12329 26.259 6.99637 25.931 6.72823 25.752C1.03818 21.9586 4.64608 16.3542 4.8016 16.1189C4.89545 15.9781 4.9397 15.8101 4.92785 15.6414C4.67915 12.1637 5.28605 9.60362 6.73136 8.03117C8.12102 6.5195 9.80296 6.48062 9.86888 6.47972C10.1808 6.47972 10.461 6.28979 10.577 6.00042C11.4306 3.86709 12.8022 3.5623 13.5154 3.5623C13.7449 3.5623 13.9067 3.59403 13.9601 3.60655C14.2202 3.67135 14.4948 3.5956 14.6843 3.40588C16.2364 1.85444 17.8317 1.25849 19.426 1.633C20.6461 1.91969 21.4405 2.68815 21.4458 2.69351C21.5889 2.83652 21.783 2.91697 21.985 2.91697H22.0141C22.2163 2.91697 22.4103 2.83652 22.5533 2.69351C22.5609 2.68591 23.3282 1.94337 24.5154 1.64663C26.1286 1.24351 27.7437 1.83455 29.3148 3.40588C29.5 3.59157 29.7747 3.66643 30.0319 3.60833C30.2596 3.55605 32.2937 3.17975 33.4221 6.00064C33.5365 6.28666 33.8172 6.47615 34.1253 6.47995C34.1962 6.48107 35.8781 6.5195 37.2678 8.03139C38.7128 9.60384 39.3195 12.1642 39.0713 15.6416C39.0594 15.8101 39.1037 15.9783 39.1975 16.1191C39.2074 16.1336 40.1696 17.5955 40.4118 19.5324C40.7275 22.0594 39.6708 24.1523 37.2709 25.7522Z" fill="white"/>
<path d="M34.8256 5.4762C34.6922 5.07644 34.2593 4.86103 33.8607 4.99376C29.1174 6.57493 29.0627 10.5388 29.0627 10.7066C29.0627 11.1258 29.401 11.4639 29.82 11.4666C29.822 11.4666 29.8238 11.4666 29.8253 11.4666C30.2421 11.4666 30.5824 11.1287 30.588 10.7117C30.59 10.5877 30.6722 7.66427 34.3429 6.44085C34.7427 6.30768 34.9585 5.87596 34.8256 5.4762Z" fill="white"/>
<path d="M38.2715 25.9239C38.0161 25.5891 37.5382 25.5241 37.2025 25.7797C35.9597 26.7267 34.8357 27.0642 33.8641 26.7842C32.133 26.2856 31.2609 24.0055 31.2526 23.9823C31.1062 23.5879 30.6671 23.3861 30.2736 23.5327C29.8786 23.6784 29.6763 24.1172 29.8225 24.5123C29.8679 24.6352 30.9621 27.5289 33.4328 28.2474C33.8013 28.3546 34.1769 28.408 34.5591 28.408C35.6962 28.408 36.8921 27.9347 38.1274 26.9929C38.4624 26.7377 38.5267 26.2586 38.2715 25.9239Z" fill="white"/>
<path d="M25.3758 26.56C25.0783 26.2621 24.5948 26.2621 24.2974 26.56C23.9995 26.8579 23.9995 27.3408 24.2974 27.6384C26.7739 30.1149 26.2602 32.5077 26.2338 32.621C26.1346 33.0283 26.3829 33.4393 26.7898 33.5412C26.8515 33.5564 26.9138 33.564 26.975 33.564C27.3167 33.564 27.628 33.3325 27.7144 32.9859C27.7482 32.8525 28.4961 29.6803 25.3758 26.56Z" fill="white"/>
<path d="M37.2094 19.4122C37.066 19.0171 36.6287 18.8127 36.2331 18.955C36.0787 19.0102 32.442 20.2819 30.5105 17.711C29.5072 16.3759 29.0761 15.2325 28.7295 14.3139C28.3043 13.187 27.9032 12.1222 26.5699 12.0123C26.1538 11.9772 25.7815 12.2898 25.7473 12.7097C25.7127 13.1291 26.0248 13.4976 26.4447 13.5322C26.764 13.5581 26.884 13.7434 27.3021 14.8517C27.663 15.8079 28.1568 17.1173 29.2909 18.6267C30.62 20.3956 32.4742 20.8398 34.0031 20.8398C35.4832 20.8398 36.6582 20.4231 36.7549 20.3882C37.15 20.2441 37.3529 19.8075 37.2094 19.4122Z" fill="white"/>
<path d="M21.9855 1.39124C21.5645 1.39124 21.2228 1.7329 21.2228 2.15389V39.9282C21.2228 40.3492 21.5645 40.6909 21.9855 40.6909C22.4065 40.6909 22.7481 40.3497 22.7481 39.9284V2.15389C22.7481 1.7329 22.4065 1.39124 21.9855 1.39124Z" fill="white"/>
<path d="M27.5623 7.96216C27.5562 7.54117 27.2224 7.19951 26.7884 7.21046C26.367 7.21649 26.0307 7.5633 26.0367 7.98428C26.0374 8.03188 26.079 12.7874 23.701 15.8034C23.4402 16.1343 23.4965 16.6139 23.8277 16.8746C23.9675 16.9853 24.1338 17.0387 24.2994 17.0387C24.5248 17.0387 24.7483 16.9392 24.8985 16.7482C27.6083 13.3119 27.5652 8.17914 27.5623 7.96216Z" fill="white"/>
<path d="M29.1128 31.3254C25.7507 31.3254 24.178 35.9273 24.1128 36.1235C23.9796 36.5228 24.1953 36.9536 24.5946 37.0874C24.6746 37.1145 24.7563 37.127 24.8363 37.127C25.1552 37.127 25.4526 36.9257 25.5599 36.6063C25.9112 35.5617 27.2345 32.8507 29.113 32.8507C29.534 32.8507 29.8757 32.5091 29.8757 32.0881C29.8757 31.6671 29.5338 31.3254 29.1128 31.3254Z" fill="white"/>
<path d="M29.972 1.93381C29.6348 1.68242 29.1566 1.75236 28.905 2.09045L27.0751 4.54912C26.8237 4.88654 26.8939 5.36451 27.2317 5.61612C27.3683 5.71824 27.5276 5.76717 27.6862 5.76717C27.9193 5.76717 28.1492 5.66125 28.2987 5.45948L30.1286 3.0008C30.38 2.66339 30.3098 2.18564 29.972 1.93381Z" fill="white"/>
<path d="M14.3572 6.8634C12.675 6.8634 11.3063 8.23206 11.3063 9.91423C11.3063 11.5964 12.675 12.9651 14.3572 12.9651C16.0393 12.9651 17.408 11.5964 17.408 9.91423C17.408 8.23206 16.0393 6.8634 14.3572 6.8634ZM14.3572 11.4398C13.5159 11.4398 12.8316 10.7555 12.8316 9.91423C12.8316 9.07292 13.5159 8.3887 14.3572 8.3887C15.1985 8.3887 15.8827 9.07292 15.8827 9.91423C15.8825 10.7555 15.1982 11.4398 14.3572 11.4398Z" fill="white"/>
<path d="M9.01799 16.7787C7.33582 16.7787 5.96716 18.1474 5.96716 19.8296C5.96716 21.5117 7.33582 22.8804 9.01799 22.8804C10.7002 22.8804 12.0688 21.5117 12.0688 19.8296C12.069 18.1474 10.7002 16.7787 9.01799 16.7787ZM9.01799 21.3551C8.17668 21.3551 7.49246 20.6709 7.49246 19.8296C7.49246 18.9883 8.17668 18.304 9.01799 18.304C9.85929 18.304 10.5435 18.9883 10.5435 19.8296C10.5435 20.6709 9.85929 21.3551 9.01799 21.3551Z" fill="white"/>
<path d="M16.6454 23.6433C14.9632 23.6433 13.5945 25.012 13.5945 26.6941C13.5945 28.3763 14.9632 29.745 16.6454 29.745C18.3275 29.745 19.6962 28.3763 19.6962 26.6941C19.6962 25.012 18.3275 23.6433 16.6454 23.6433ZM16.6454 28.2197C15.8041 28.2197 15.1198 27.5354 15.1198 26.6941C15.1198 25.8528 15.8041 25.1686 16.6454 25.1686C17.4867 25.1686 18.1709 25.8528 18.1709 26.6941C18.1709 27.5354 17.4864 28.2197 16.6454 28.2197Z" fill="white"/>
<path d="M16.6454 32.0333C14.9632 32.0333 13.5945 33.402 13.5945 35.0842C13.5945 36.7663 14.9632 38.135 16.6454 38.135C18.3275 38.135 19.6962 36.7663 19.6962 35.0842C19.6962 33.402 18.3275 32.0333 16.6454 32.0333ZM16.6454 36.6097C15.8041 36.6097 15.1198 35.9255 15.1198 35.0842C15.1198 34.2428 15.8041 33.5586 16.6454 33.5586C17.4867 33.5586 18.1709 34.2428 18.1709 35.0842C18.1707 35.9255 17.4864 36.6097 16.6454 36.6097Z" fill="white"/>
<path d="M14.3572 11.4398C13.9362 11.4398 13.5945 11.7814 13.5945 12.2024V19.8296C13.5945 20.2506 13.9362 20.5922 14.3572 20.5922C14.7786 20.5922 15.1198 20.251 15.1198 19.8296V12.2024C15.1198 11.7814 14.7782 11.4398 14.3572 11.4398Z" fill="white"/>
<path d="M16.6453 19.067H11.3061C10.8851 19.067 10.5435 19.4086 10.5435 19.8296C10.5435 20.2506 10.8851 20.5923 11.3061 20.5923H16.6451C17.0665 20.5923 17.4078 20.2506 17.4078 19.8296C17.408 19.4086 17.0663 19.067 16.6453 19.067Z" fill="white"/>
<path d="M16.6453 19.067C16.2244 19.067 15.8827 19.4086 15.8827 19.8296V24.406C15.8827 24.8269 16.2244 25.1686 16.6453 25.1686C17.0668 25.1686 17.408 24.8274 17.408 24.406V19.8296C17.408 19.4086 17.0663 19.067 16.6453 19.067Z" fill="white"/>
<path d="M16.6453 28.2196C16.2244 28.2196 15.8827 28.5613 15.8827 28.9823V32.796C15.8827 33.217 16.2244 33.5586 16.6453 33.5586C17.0668 33.5586 17.408 33.2174 17.408 32.796V28.9823C17.408 28.5613 17.0663 28.2196 16.6453 28.2196Z" fill="white"/>
</g>
<defs>
<clipPath id="clip0">
<rect width="44" height="44" fill="white"/>
</clipPath>
</defs>
</svg>
