<svg width="26" height="25" viewBox="0 0 26 25" fill="none" xmlns="http://www.w3.org/2000/svg">
<path d="M17.5217 9.7826C17.8337 9.7826 18.087 9.53911 18.087 9.23911V2.71737C18.0869 1.21956 16.8197 0 15.2609 0H2.82607C1.26723 0 0 1.21956 0 2.71737V22.2826C0 23.7804 1.26723 24.9999 2.82607 24.9999H15.2609C16.8197 24.9999 18.0869 23.7804 18.0869 22.2826V15.7608C18.0869 15.4608 17.8337 15.2173 17.5217 15.2173C17.2097 15.2173 16.9565 15.4608 16.9565 15.7608V22.2826C16.9565 23.1815 16.1957 23.913 15.2609 23.913H2.82607C1.89118 23.913 1.13042 23.1815 1.13042 22.2826V2.71737C1.13042 1.81844 1.89118 1.08694 2.82607 1.08694H15.2609C16.1957 1.08694 16.9565 1.81844 16.9565 2.71737V9.23911C16.9565 9.53911 17.2097 9.7826 17.5217 9.7826Z" fill="white"/>
<path d="M25.4347 11.9565H7.34783C7.03583 11.9565 6.78259 12.2 6.78259 12.5C6.78259 12.8 7.03583 13.0435 7.34783 13.0435H25.4347C25.7467 13.0435 26 12.8 26 12.5C26 12.2 25.7467 11.9565 25.4347 11.9565Z" fill="white"/>
<path d="M25.8338 12.1174L22.4425 8.85654C22.2221 8.64458 21.8637 8.64458 21.6433 8.85654C21.4229 9.06849 21.4229 9.41308 21.6433 9.62503L24.6344 12.5011L21.6433 15.3772C21.4229 15.5892 21.4229 15.9337 21.6433 16.1457C21.7541 16.2511 21.8988 16.3044 22.0435 16.3044C22.1882 16.3044 22.3328 16.2512 22.4425 16.1468L25.8338 12.886C26.0543 12.6739 26.0543 12.3294 25.8338 12.1174Z" fill="white"/>
</svg>
